<svg xmlns="http://www.w3.org/2000/svg" viewBox="0 0 1024 1024"><rect x="100" y="100" width="824" height="824" rx="185" fill="#fdfdfd"/><path d="M100 285V285a185 185 0 0 1 185-185h454a185 185 0 0 1 185 185v35H100z" fill="#ffd52e"/><g stroke="#d8d8d8" stroke-width="10"><line x1="170" y1="430" x2="854" y2="430"/><line x1="170" y1="520" x2="854" y2="520"/><line x1="170" y1="610" x2="854" y2="610"/><line x1="170" y1="700" x2="854" y2="700"/><line x1="170" y1="790" x2="854" y2="790"/></g><g fill="#c9a227" opacity=".45"><circle cx="160" cy="365" r="9"/><circle cx="200" cy="365" r="9"/><circle cx="240" cy="365" r="9"/><circle cx="280" cy="365" r="9"/><circle cx="320" cy="365" r="9"/><circle cx="360" cy="365" r="9"/><circle cx="400" cy="365" r="9"/><circle cx="440" cy="365" r="9"/><circle cx="480" cy="365" r="9"/><circle cx="520" cy="365" r="9"/><circle cx="560" cy="365" r="9"/><circle cx="600" cy="365" r="9"/><circle cx="640" cy="365" r="9"/><circle cx="680" cy="365" r="9"/><circle cx="720" cy="365" r="9"/><circle cx="760" cy="365" r="9"/><circle cx="800" cy="365" r="9"/><circle cx="840" cy="365" r="9"/></g><rect x="100" y="100" width="824" height="824" rx="185" fill="none" stroke="#000" stroke-opacity=".08" stroke-width="4"/></svg>